<svg width="40" height="25" viewBox="0 0 40 25" fill="none" xmlns="http://www.w3.org/2000/svg">
<path d="M36.7064 3.52804H25.1786V0.234375H36.7064V3.52804ZM39.5488 19.9964C38.8209 22.1323 36.2074 24.9369 31.1483 24.9369C26.086 24.9369 21.9853 22.0895 21.9853 15.5911C21.9853 9.15197 25.8142 5.84184 30.9869 5.84184C36.0625 5.84184 39.1618 8.77649 39.8387 13.1307C39.9671 13.964 40.0182 15.0872 39.9951 16.6549H26.776C26.9901 21.9429 32.5119 22.1092 34.3316 19.9964H39.5488ZM26.8913 13.409H35.0678C34.8949 10.8614 33.197 9.75471 30.9886 9.75471C28.5743 9.75471 27.2387 11.0195 26.8913 13.409ZM11.1245 24.9171H0.476074V0.268958H11.9265C20.9445 0.402352 21.1158 9.23431 16.4059 11.642C22.1056 13.717 22.2966 24.9171 11.1245 24.9171ZM5.41657 10.1154H11.3188C15.4491 10.1154 16.1045 5.17487 10.805 5.17487H5.41657V10.1154ZM11.001 15.0559H5.41657V20.0227H10.9186C15.9497 20.0227 15.6417 15.0559 11.001 15.0559Z" fill="white"/>
</svg>
