<svg width="34" height="33" viewBox="0 0 34 33" fill="none" xmlns="http://www.w3.org/2000/svg">
<path d="M17 0.705566C8.14568 0.705566 0.943359 7.90788 0.943359 16.7622C0.943359 25.6165 8.14568 32.8188 17 32.8188C25.8543 32.8188 33.0566 25.6165 33.0566 16.7622C33.0566 7.90788 25.8543 0.705566 17 0.705566ZM27.6182 8.10859C29.5288 10.4437 30.6867 13.4158 30.7137 16.6541C30.2621 16.5576 25.7269 15.639 21.1647 16.2141C21.0682 15.9786 20.9717 15.7432 20.8713 15.5078C20.5857 14.84 20.2808 14.1723 19.9604 13.52C25.0283 11.4473 27.3287 8.50229 27.6182 8.10859ZM17 3.06774C20.4853 3.06774 23.6696 4.3762 26.0897 6.52223C25.8427 6.87347 23.7777 9.64864 18.9028 11.4782C16.6565 7.34822 14.1669 3.95935 13.7848 3.44986C14.8385 3.19511 15.9154 3.06774 17 3.06774ZM11.1679 4.37234C11.5307 4.86639 13.9816 8.26684 16.2512 12.3042C9.83625 14.0063 4.18556 13.9831 3.57186 13.9754C4.46346 9.71811 7.33127 6.18257 11.1679 4.37234ZM3.28624 16.7815C3.28624 16.6425 3.29009 16.4997 3.29395 16.3608C3.89222 16.3723 10.5387 16.4573 17.3898 14.4077C17.7835 15.1758 18.1579 15.9555 18.5014 16.7352C18.32 16.7853 18.1386 16.8394 17.9611 16.8973C10.8861 19.19 7.12284 25.4235 6.8102 25.9523C4.62171 23.5206 3.28624 20.3054 3.28624 16.7815ZM17 30.4952C13.8272 30.4952 10.9054 29.4145 8.58183 27.6004C8.82885 27.0948 11.604 21.7336 19.339 19.0356L19.4278 19.0047C21.3538 24.007 22.1489 28.2025 22.3535 29.4068C20.6616 30.1299 18.8399 30.5003 17 30.4952ZM24.6616 28.1523C24.5226 27.3186 23.7932 23.3045 21.9984 18.3756C26.2981 17.6885 30.073 18.8156 30.54 18.9622C29.9302 22.7757 27.7417 26.0719 24.6616 28.1523Z" fill="white"/>
</svg>
