<svg width="38" height="31" viewBox="0 0 38 31" fill="none" xmlns="http://www.w3.org/2000/svg">
<path d="M37.9361 4.13018C36.561 4.73951 35.0837 5.15122 33.5308 5.33731C35.1332 4.37851 36.332 2.86948 36.9035 1.09178C35.398 1.98599 33.7504 2.61542 32.0322 2.9527C30.8767 1.719 29.3463 0.901283 27.6785 0.626505C26.0107 0.351728 24.2988 0.635262 22.8087 1.43309C21.3185 2.23091 20.1334 3.4984 19.4374 5.03875C18.7415 6.5791 18.5735 8.30614 18.9596 9.95173C15.9092 9.79857 12.925 9.00571 10.2008 7.6246C7.47662 6.2435 5.07326 4.30501 3.14673 1.93496C2.488 3.07127 2.10923 4.38874 2.10923 5.79184C2.10849 7.05495 2.41954 8.29871 3.01479 9.41278C3.61003 10.5268 4.47105 11.4768 5.52146 12.1783C4.30326 12.1395 3.11194 11.8103 2.04665 11.2181V11.317C2.04653 13.0885 2.65932 14.8056 3.78106 16.1768C4.9028 17.5479 6.46439 18.4888 8.20086 18.8397C7.07078 19.1455 5.88597 19.1906 4.73593 18.9714C5.22585 20.4958 6.18019 21.8287 7.46533 22.7837C8.75047 23.7387 10.3021 24.2679 11.9029 24.2973C9.18539 26.4306 5.82924 27.5878 2.37437 27.5827C1.76237 27.5829 1.1509 27.5471 0.543091 27.4757C4.04998 29.7305 8.13225 30.9271 12.3015 30.9225C26.4148 30.9225 34.1302 19.2333 34.1302 9.09538C34.1302 8.76602 34.122 8.43335 34.1072 8.10399C35.6079 7.01868 36.9033 5.67474 37.9328 4.13512L37.9361 4.13018Z" fill="white"/>
</svg>
